<?xml version="1.0" encoding="UTF-8"?>
<svg id="Layer_1" data-name="Layer 1" xmlns="http://www.w3.org/2000/svg" version="1.1" viewBox="0 0 1000 512">
  <defs>
    <style>
      .cls-1 {
        letter-spacing: 0em;
      }

      .cls-1, .cls-2 {
        fill: #0b4d8c;
      }

      .cls-3 {
        font-family: NeueHaasDisplay-Light, 'Neue Haas Grotesk Display Pro';
        font-size: 116.67px;
        font-weight: 300;
      }

      .cls-4, .cls-2, .cls-5 {
        stroke-width: 0px;
      }

      .cls-4, .cls-6 {
        fill: #121c2a;
      }

      .cls-5 {
        fill: #69aedf;
      }
    </style>
  </defs>
  <g>
    <path class="cls-2" d="M578.33,11.32h19.12l9.34,1.33,8.45,2.22,6.22,2.22,7.11,3.56,5.33,3.11,5.78,4.45,3.11,2.67,4,4.89,4.45,5.78,4.89,8.45,3.11,5.33-4,.89-20.45,3.11-8.89,1.78-12,3.11-12,4-11.56,4.89-8.45,4-10.67,6.22-8,5.33-7.56,5.78-5.78,4.89-4.45,4-3.56,3.11-5.78,5.78-3.11,3.56-4.89,5.78-4.45,5.78-4.45,6.22-4.89,7.56-5.33,9.34-4,7.56-3.11,7.11-2.67,5.33-6.67,14.67-7.11,15.12-11.56,25.79-6.22,13.34-4.45,10.23-2.22,4.45-1.33.89-.89-.89-2.67-16-6.22-32.45-6.67-33.79-5.33-27.12-3.11-16-4.89-24.9-.89-4.89v-2.22l20.89-20.89,3.56-3.11,5.78-4.89,6.22-4.89,6.67-5.33,8-5.78,13.34-8.89,9.78-5.78,12.45-6.67,14.67-6.67,12-4.45,11.11-3.56,16.89-3.56,8-.89Z"/>
    <path class="cls-4" d="M653.46,99.34h11.11l-1.33,9.34-2.22,14.67-3.56,15.12-5.78,17.78-6.22,15.12-4.89,10.67-4.45,8.45-5.33,9.78-5.33,8.89-5.78,8.89-4.89,7.11-4.89,6.67-5.78,7.56-5.33,6.67-4,4.89-4.89,5.33-4,4.45-7.11,7.56-10.67,10.67-3.56,3.11-3.56,3.56-4.89,4-6.22,5.33-16,12-6.67,4.45-9.78,6.22-10.67,6.22-10.23,5.33-10.67,4.89-9.78,4h-.89l.44-2.67,3.11-7.11,14.23-35.57,3.11-8,16-40.01,4.89-12.45,3.11-8,4.45-11.11h48.9l.89-4,2.67-5.78,2.67-6.67,4.45-11.56,3.11-8v-.89l-25.34-.44h-20.01l.44-2.22,5.33-12.45,3.56-7.11,3.56-6.22,6.22-8.45,4.89-5.33,5.33-5.33,7.56-5.78,6.67-4.45,6.22-3.56,10.23-4.89,11.11-4,12-3.11,18.23-2.67,10.23-.89Z"/>
    <path class="cls-5" d="M392.5,143.36h1.78l4,24.01,4,20.89,4.89,25.34,7.56,39.57,4.45,23.12,4.89,25.79,4.89,25.34,3.11,16,.44,4.45h-11.11l-12.45-1.33-10.23-2.22-9.34-3.56-5.78-3.11-6.22-4.45-5.78-4.89-3.11-3.11-5.78-7.56-4-7.11-2.22-4.89-2.22-5.78-1.33-4-2.67-12.45-.89-9.34v-15.12l.89-9.34,3.11-17.78,3.56-14.23,5.33-16,5.33-12.89,3.56-8,4-8.45,5.78-10.23,6.67-12,3.56-5.33,1.33-1.33Z"/>
  </g>
  <text class="cls-3" transform="translate(58.33 478.37)"><tspan class="cls-6" x="0" y="0">Valiente</tspan><tspan class="cls-1" x="378.46" y="0">Fernández</tspan></text>
</svg>